Coordinates
version=1
nRows=17
nColumns=38
inDegrees=no

Units are S.I. units (second, meters, Newtons, ...)
If the header above contains a line with 'inDegrees', this indicates whether rotational values are in degrees (yes) or radians (no).

endheader
time	pelvis_tilt	pelvis_list	pelvis_rotation	pelvis_tx	pelvis_ty	pelvis_tz	hip_flexion_r	hip_adduction_r	hip_rotation_r	knee_angle_r	ankle_angle_r	subtalar_angle_r	mtp_angle_r	hip_flexion_l	hip_adduction_l	hip_rotation_l	knee_angle_l	ankle_angle_l	subtalar_angle_l	mtp_angle_l	lumbar_extension	lumbar_bending	lumbar_rotation	arm_flex_r	arm_add_r	arm_rot_r	elbow_flex_r	pro_sup_r	wrist_flex_r	wrist_dev_r	arm_flex_l	arm_add_l	arm_rot_l	elbow_flex_l	pro_sup_l	wrist_flex_l	wrist_dev_l
2.1	-2.62061	1.41973	-2.12859	0.711101	1.36944	0.941138	0.187849	-0.305542	-0.123454	1.26487	-0.0357049	0	0	-0.0285877	0.112036	-0.244483	0.210851	0.0745387	0	0	-0.199463	-0.0561228	-0.0340963	-0.0669479	-0.336587	0.444576	0.674297	1.30297	0	0	-0.0487414	-0.372754	0.544953	0.694095	0.945296	0	0
2.11	-2.67562	1.42498	-2.07075	0.71022	1.37847	0.942666	0.208935	-0.292584	-0.12574	1.25696	-0.0221805	0	0	-0.0444442	0.104149	-0.239578	0.200149	0.0768365	0	0	-0.199329	-0.043763	-0.041731	-0.0713206	-0.337352	0.441006	0.681388	1.29554	0	0	-0.0426911	-0.375544	0.533317	0.692558	0.953399	0	0
2.12	-2.73483	1.42958	-2.00853	0.709417	1.38744	0.94412	0.228181	-0.279747	-0.13065	1.24412	-0.0080425	0	0	-0.0604712	0.0960997	-0.234733	0.189187	0.0788432	0	0	-0.199509	-0.0314759	-0.0492984	-0.0755054	-0.338617	0.438913	0.689438	1.28483	0	0	-0.0371614	-0.378526	0.5197	0.692507	0.961858	0	0
2.13	-2.77875	1.43272	-1.95974	0.709828	1.39615	0.945565	0.245068	-0.256691	-0.141526	1.22761	-0.00173844	0	0	-0.077232	0.0867068	-0.233381	0.176676	0.0827287	0	0	-0.199886	-0.0237926	-0.0578577	-0.0800104	-0.337867	0.437617	0.6977	1.27651	0	0	-0.0314407	-0.383625	0.505076	0.693242	0.968614	0	0
2.14	-2.8386	1.43598	-1.89576	0.709083	1.40504	0.946801	0.26068	-0.24556	-0.150031	1.20509	0.0124834	0	0	-0.0936954	0.0791083	-0.22767	0.164917	0.0842029	0	0	-0.200327	-0.012291	-0.0656269	-0.0845669	-0.338308	0.433469	0.705422	1.27243	0	0	-0.0263314	-0.387163	0.489858	0.695658	0.973328	0	0
2.15	-2.8956	1.43872	-1.83547	0.708458	1.41379	0.947851	0.275647	-0.235283	-0.159163	1.17851	0.0262412	0	0	-0.109587	0.0721586	-0.22255	0.153565	0.0855128	0	0	-0.200888	-0.00166237	-0.0724451	-0.0887555	-0.33844	0.427968	0.712889	1.2708	0	0	-0.0216283	-0.39068	0.472925	0.699417	0.978084	0	0
2.16	-2.95087	1.4411	-1.77706	0.707944	1.42249	0.948708	0.289222	-0.225579	-0.169805	1.14754	0.0399133	0	0	-0.124876	0.0653627	-0.217452	0.142873	0.0870935	0	0	-0.20141	0.00834693	-0.0789302	-0.0924276	-0.338447	0.422469	0.71962	1.27228	0	0	-0.017237	-0.394369	0.455378	0.70396	0.982483	0	0
2.17	-3.00548	1.44305	-1.71951	0.707517	1.43119	0.949368	0.300998	-0.216228	-0.181843	1.11237	0.0531973	0	0	-0.140061	0.0587706	-0.213329	0.131634	0.0891452	0	0	-0.201821	0.0179035	-0.0853574	-0.0952199	-0.338527	0.418323	0.725316	1.2765	0	0	-0.0134302	-0.398171	0.437386	0.709261	0.985498	0	0
2.18	-3.05847	1.44441	-1.66379	0.707196	1.43989	0.949849	0.310792	-0.207298	-0.195029	1.07325	0.0644994	0	0	-0.155634	0.0524232	-0.209006	0.120135	0.0914389	0	0	-0.202429	0.0269502	-0.0914028	-0.097595	-0.338318	0.41454	0.7301	1.28083	0	0	-0.00979119	-0.402123	0.419577	0.71507	0.9874	0	0
2.19	-3.10718	1.44526	-1.61268	0.706963	1.44857	0.95016	0.318688	-0.198972	-0.209096	1.0302	0.0718259	0	0	-0.171581	0.0467536	-0.204552	0.108304	0.0936211	0	0	-0.203226	0.0352032	-0.0969533	-0.0991672	-0.338385	0.412837	0.733748	1.28358	0	0	-0.0059695	-0.406294	0.403142	0.721095	0.986617	0	0
2.2	3.13441	1.44612	-1.56923	0.706803	1.45719	0.950243	0.325512	-0.191614	-0.223795	0.983669	0.0747565	0	0	-0.187376	0.042185	-0.200262	0.0960587	0.0956744	0	0	-0.203836	0.0423604	-0.101833	-0.100046	-0.338288	0.411267	0.736065	1.28739	0	0	-0.00182324	-0.410456	0.387765	0.726975	0.984141	0	0
2.21	3.09848	1.44728	-1.53194	0.706712	1.46577	0.95006	0.331423	-0.184985	-0.239253	0.93424	0.0747855	0	0	-0.20286	0.0385314	-0.196217	0.0834194	0.0977615	0	0	-0.204075	0.0486501	-0.106043	-0.1006	-0.338002	0.409472	0.737593	1.29215	0	0	0.00259745	-0.414656	0.373696	0.732685	0.979822	0	0
2.22	3.06655	1.44864	-1.4989	0.706679	1.47436	0.949618	0.336285	-0.179046	-0.256061	0.882516	0.0747701	0	0	-0.218117	0.0355083	-0.192097	0.0707115	0.0999075	0	0	-0.204094	0.0543299	-0.109694	-0.100925	-0.337779	0.4082	0.73858	1.29713	0	0	0.00730007	-0.418838	0.361043	0.738283	0.973942	0	0
2.23	3.03773	1.45017	-1.46925	0.706747	1.48294	0.948955	0.340003	-0.173318	-0.274186	0.828438	0.0760522	0	0	-0.233029	0.0329076	-0.18818	0.0582249	0.102513	0	0	-0.203958	0.0594151	-0.112772	-0.10079	-0.33761	0.408179	0.738751	1.30022	0	0	0.0123441	-0.423095	0.349924	0.743544	0.967493	0	0
2.24	3.01223	1.45174	-1.44345	0.706961	1.49152	0.948104	0.342604	-0.167613	-0.293585	0.772164	0.0782956	0	0	-0.247593	0.0306986	-0.184924	0.0464173	0.105857	0	0	-0.203978	0.0638554	-0.114988	-0.100362	-0.337353	0.408571	0.738397	1.30209	0	0	0.0177494	-0.427234	0.339485	0.748264	0.960091	0	0
2.25	2.99313	1.45368	-1.42417	0.707241	1.50008	0.947039	0.344813	-0.162718	-0.314811	0.714478	0.0807096	0	0	-0.261462	0.029264	-0.181704	0.0352894	0.109751	0	0	-0.20392	0.0673373	-0.116779	-0.0997826	-0.336732	0.408433	0.737285	1.30391	0	0	0.0234857	-0.431426	0.330687	0.753137	0.952807	0	0
2.26	2.97898	1.45626	-1.4101	0.707639	1.5086	0.945728	0.347229	-0.158038	-0.33656	0.65613	0.0840175	0	0	-0.27414	0.0284092	-0.179267	0.0253543	0.114217	0	0	-0.203414	0.0699032	-0.11814	-0.0989827	-0.335723	0.407896	0.73524	1.30612	0	0	0.0293014	-0.435603	0.32298	0.757932	0.94603	0	0
